<svg width="717" height="158" viewBox="0 0 717 158" fill="none" xmlns="http://www.w3.org/2000/svg">
<path d="M5.4855 61.9838C5.4855 61.9838 3.43594 27.9961 45.3165 26.7675C87.197 25.5389 85.3654 55.9316 85.3654 55.9316L67.7966 56.6041C67.7966 56.6041 71.6384 39.6111 46.9243 39.434C22.2102 39.2568 20.6828 58.033 20.6828 58.033C20.6828 58.033 18.9979 72.6972 50.1096 73.7526C81.2213 74.8079 82.0618 116.329 82.0618 116.329C82.0618 116.329 79.5827 149.367 42.3023 153.414C5.02194 157.462 8.2915 125.516 8.2915 125.516L23.4602 120.818C23.4602 120.818 18.9279 139.335 40.9395 137.369C62.9511 135.404 64.4786 116.628 64.4786 116.628C64.4786 116.628 66.8557 90.7062 41.394 90.5577C15.9323 90.4091 5.4855 61.9838 5.4855 61.9838ZM172.601 65.3208C172.601 65.3208 168.105 45.6522 142.326 47.0132C116.548 48.3742 117.317 88.0261 117.317 88.0261C117.317 88.0261 120.041 129.849 146.538 127.712C173.035 125.575 172.694 106.87 172.694 106.87L192.547 116.967C192.547 116.967 185.884 148.293 145.082 148.357C104.28 148.422 98.5839 87.6201 98.5839 87.6201C98.5839 87.6201 91.421 27.6234 142.647 26.0371C193.872 24.4509 192.601 59.6887 192.601 59.6887L172.601 65.3208ZM202.778 22.2382L224.961 24.7584L226.966 67.3579L256.482 65.8538L254.492 23.6281L277.711 23.8625L282.448 137.859L261.472 137.539L260.015 89.6772L226.76 91.3244L229.525 144.002L207.542 146.715L202.778 22.2382ZM288.008 20.8479L363.388 19.4602L365.742 36.9647L311.138 38.3059L313.044 68.5556L345.464 69.5608L345.734 86.3964L313.055 88.3959L312.344 123.612L369.033 122.94L369.36 141.271L292.758 144.951L288.008 20.8479ZM375.028 17.5173L419.913 16.5481C419.913 16.5481 461.334 13.0909 463.392 76.6522C465.451 140.213 427.165 137.561 427.165 137.561L380.08 139.737L375.028 17.5173ZM417.523 32.3623L393.255 34.0399L396.157 119.656L424.221 119.33C424.221 119.33 449.438 122.857 446.859 75.0389C444.28 27.2204 417.523 32.3623 417.523 32.3623ZM473.402 13.3778L493.156 11.1243L495.311 96.7686C495.311 96.7686 496.529 118.809 514.112 118.51C531.695 118.212 531.023 100.643 531.023 100.643L525.318 10.2677L545.187 11.0046L551.827 96.4773C551.827 96.4773 554.091 136.072 514.454 137.215C474.816 138.358 477.871 100.805 477.871 100.805L473.402 13.3778ZM558.529 9.74524L582.15 10.7129L579.801 115.622L628.022 113.776L629.831 131.676L565.853 132.627L558.529 9.74524ZM635.173 7.56046L710.552 6.17281L712.907 23.6773L658.302 25.0185L660.209 55.2681L692.629 56.2734L692.899 73.109L660.22 75.1084L659.508 110.325L716.197 109.653L716.524 127.983L639.923 131.664L635.173 7.56046Z" fill="#1D48B9"/>
</svg>
