<svg width="479" height="275" viewBox="0 0 479 275" fill="none" xmlns="http://www.w3.org/2000/svg">
<path d="M0.526704 18.9324L20.7331 19.7602L18.724 109.503L59.9738 107.924L61.5205 123.236L6.79162 124.05L0.526704 18.9324ZM66.0907 17.0635L130.572 15.8765L132.587 30.8504L85.8763 31.9977L87.5072 57.8743L115.24 58.7342L115.471 73.1359L87.5163 74.8463L86.9081 104.972L135.402 104.397L135.681 120.077L70.154 123.226L66.0907 17.0635ZM144.004 113.354L180.181 12.6968L203.795 10.5121L241.029 104.837L220.009 116.209L206.968 76.6791L182.961 76.9575L163.484 120.294L144.004 113.354ZM191.578 34.3568L183.923 60.2685L202.494 60.1982L191.578 34.3568ZM246.04 10.1761L284.437 9.34699C284.437 9.34699 319.869 6.38966 321.63 60.7621C323.391 115.135 290.64 112.865 290.64 112.865L250.362 114.727L246.04 10.1761ZM282.392 22.8751L261.632 24.3101L264.115 97.5487L288.122 97.2704C288.122 97.2704 309.693 100.288 307.487 59.382C305.281 18.4765 282.392 22.8751 282.392 22.8751ZM328.286 7.02821L392.768 5.84117L394.782 20.8151L348.072 21.9624L349.703 47.839L377.436 48.6989L377.667 63.1006L349.712 64.811L349.104 94.9364L397.597 94.3612L397.877 110.042L332.349 113.19L328.286 7.02821ZM403.07 4.80641L441.749 3.00576C441.749 3.00576 465.744 2.40761 466.354 26.7221C466.965 51.0365 455.158 52.1289 455.158 52.1289L435.467 56.4051L472.638 98.8545L457.878 106.465L422.662 64.901L425.618 108.66L407.675 108.386L403.07 4.80641ZM440.222 13.3117L420.458 15.6693L419.653 44.8415L442 43.0254C442 43.0254 456.402 42.7945 455.187 27.79C453.972 12.7854 440.222 13.3117 440.222 13.3117ZM28.8309 164.316L77.7551 162.444C77.7551 162.444 101.381 160.579 103.442 189.321C105.503 218.063 84.0416 217.924 84.0416 217.924C84.0416 217.924 108.442 219.552 107.343 241.05C106.245 262.547 80.8346 268.003 80.8346 268.003L35.7721 270.368L28.8309 164.316ZM43.0581 176.261L45.2046 207.241L71.4621 207.197C71.4621 207.197 90.1309 209.685 88.4618 191.175C86.7926 172.666 75.379 175.664 75.379 175.664L43.0581 176.261ZM46.8248 224.472L48.9713 255.453L73.2612 254.203C73.2612 254.203 91.6225 257.023 91.6501 241.01C91.6777 224.997 75.7016 225.929 75.7016 225.929L46.8248 224.472ZM115.045 211.934C115.045 211.934 112.46 161.115 148.605 160.052C184.751 158.989 191.42 207.73 191.42 207.73C191.42 207.73 189.11 264.5 149.815 266.964C110.521 269.429 115.045 211.934 115.045 211.934ZM150.054 172.806C126.158 175.962 129.742 211.051 129.742 211.051C129.742 211.051 128.751 252.079 151.749 250.558C174.748 249.038 177.695 208.895 177.695 208.895C177.695 208.895 173.951 169.65 150.054 172.806ZM201.679 258.254L237.856 157.597L261.469 155.412L298.704 249.737L277.684 261.109L264.642 221.579L240.635 221.858L221.159 265.194L201.679 258.254ZM249.252 179.257L241.598 205.169L260.169 205.098L249.252 179.257ZM304.059 155.704L342.739 153.903C342.739 153.903 366.733 153.305 367.344 177.619C367.954 201.934 356.147 203.026 356.147 203.026L336.456 207.302L373.627 249.752L358.867 257.362L323.652 215.798L326.608 259.557L308.664 259.283L304.059 155.704ZM341.212 164.209L321.447 166.567L320.642 195.739L342.989 193.923C342.989 193.923 357.391 193.692 356.176 178.687C354.962 163.683 341.212 164.209 341.212 164.209ZM378.466 152.215L416.863 151.386C416.863 151.386 452.296 148.429 454.056 202.801C455.817 257.174 423.066 254.905 423.066 254.905L382.788 256.766L378.466 152.215ZM414.819 164.914L394.058 166.349L396.541 239.588L420.548 239.31C420.548 239.31 442.119 242.327 439.913 201.421C437.707 160.516 414.819 164.914 414.819 164.914Z" fill="#D33D5E"/>
</svg>
