<svg width="453" height="133" viewBox="0 0 453 133" fill="none" xmlns="http://www.w3.org/2000/svg">
<g filter="url(#filter0_d_632_681)">
<path d="M24.968 21.92L76.304 25.64L78.04 39.28L60.68 39.776L60.928 102.272L46.792 101.528L47.536 38.784L24.72 38.536L24.968 21.92ZM85.232 21.424L100.856 22.168L102.592 103.016H85.976L85.232 21.424ZM109.041 99.792L121.193 22.912L140.041 22.664L144.257 61.848L149.217 22.664L165.833 22.912L178.729 97.808L164.593 104.008L158.889 44.984L152.441 85.16H138.305L130.617 43.248L122.929 105L109.041 99.792ZM185.428 21.672L235.4 22.664L236.516 34.32L200.308 33.824L200.804 53.912L222.256 55.4L222.008 66.56L200.308 67.056L198.944 90.368L236.516 91.36L236.268 103.512L185.428 104.008V21.672ZM243.161 21.176L258.785 22.416L254.569 91.856H286.561L287.305 103.76L244.897 102.768L243.161 21.176ZM294.487 21.424L310.111 22.168L311.847 103.016H295.231L294.487 21.424ZM318.048 21.672L331.688 20.68L360.208 83.424L354.008 22.168L367.648 21.672L370.872 98.552L356.488 103.016L331.44 45.976L333.424 103.264H317.8L318.048 21.672ZM377.609 21.672L427.581 22.664L428.697 34.32L392.489 33.824L392.985 53.912L414.437 55.4L414.189 66.56L392.489 67.056L391.125 90.368L428.697 91.36L428.449 103.512L377.609 104.008V21.672Z" fill="#D33D5E"/>
</g>
<defs>
<filter id="filter0_d_632_681" x="0.719971" y="0.680054" width="451.977" height="132.32" filterUnits="userSpaceOnUse" color-interpolation-filters="sRGB">
<feFlood flood-opacity="0" result="BackgroundImageFix"/>
<feColorMatrix in="SourceAlpha" type="matrix" values="0 0 0 0 0 0 0 0 0 0 0 0 0 0 0 0 0 0 127 0" result="hardAlpha"/>
<feOffset dy="4"/>
<feGaussianBlur stdDeviation="12"/>
<feComposite in2="hardAlpha" operator="out"/>
<feColorMatrix type="matrix" values="0 0 0 0 0.984314 0 0 0 0 0.898039 0 0 0 0 0.298039 0 0 0 1 0"/>
<feBlend mode="normal" in2="BackgroundImageFix" result="effect1_dropShadow_632_681"/>
<feBlend mode="normal" in="SourceGraphic" in2="effect1_dropShadow_632_681" result="shape"/>
</filter>
</defs>
</svg>
