<svg width="747" height="135" viewBox="0 0 747 135" fill="none" xmlns="http://www.w3.org/2000/svg">
<g filter="url(#filter0_d_243_1181)">
<path d="M24.3303 22.176L39.9543 23.416L35.7383 92.856H67.7303L68.4743 104.76L26.0663 103.768L24.3303 22.176ZM75.1606 22.672L125.133 23.664L126.249 35.32L90.0406 34.824L90.5366 54.912L111.989 56.4L111.741 67.56L90.0406 68.056L88.6766 91.368L126.249 92.36L126.001 104.512L75.1606 105.008V22.672ZM132.645 99.552L163.645 22.672L181.997 21.68L208.037 95.832L191.421 104.016L182.493 73.016L163.893 72.52L147.525 105.504L132.645 99.552ZM171.829 39.784L165.133 59.624L179.517 60.12L171.829 39.784ZM214.724 22.672L244.484 23.168C244.484 23.168 272.012 21.928 271.764 64.088C271.516 106.248 246.22 103.52 246.22 103.52L214.972 103.768L214.724 22.672ZM242.5 33.584L226.38 34.08L226.132 90.872L244.732 91.368C244.732 91.368 261.348 94.344 260.852 62.6C260.356 30.856 242.5 33.584 242.5 33.584ZM278.511 22.672L328.483 23.664L329.599 35.32L293.391 34.824L293.887 54.912L315.339 56.4L315.091 67.56L293.391 68.056L292.027 91.368L329.599 92.36L329.351 104.512L278.511 105.008V22.672ZM336.492 23.168L366.5 22.92C366.5 22.92 385.1 23.168 384.852 42.016C384.604 60.864 375.428 61.36 375.428 61.36L360.052 64.088L387.58 98.064L375.924 103.52L349.884 70.288L350.876 104.264L336.988 103.52L336.492 23.168ZM365.012 30.856L349.636 32.096L348.148 54.664L365.508 53.92C365.508 53.92 376.668 54.168 376.172 42.512C375.676 30.856 365.012 30.856 365.012 30.856ZM394.466 21.68L432.41 21.68C432.41 21.68 450.762 20.936 451.506 43.256C452.25 65.576 435.634 64.832 435.634 64.832C435.634 64.832 454.482 66.816 452.994 83.432C451.506 100.048 431.666 103.52 431.666 103.52L396.698 104.016L394.466 21.68ZM405.13 31.352L405.874 55.408L426.21 56.152C426.21 56.152 440.594 58.632 439.85 44.248C439.106 29.864 430.178 31.848 430.178 31.848L405.13 31.352ZM406.618 68.8L407.362 92.856L426.21 92.608C426.21 92.608 440.346 95.336 440.842 82.936C441.338 70.536 428.938 70.784 428.938 70.784L406.618 68.8ZM459.822 61.112C459.822 61.112 459.326 21.68 487.35 21.928C515.374 22.176 519.094 60.12 519.094 60.12C519.094 60.12 515.622 104.016 485.118 104.76C454.614 105.504 459.822 61.112 459.822 61.112ZM488.094 31.848C469.494 33.584 471.23 60.864 471.23 60.864C471.23 60.864 469.246 92.608 487.102 92.112C504.958 91.616 508.43 60.616 508.43 60.616C508.43 60.616 506.694 30.112 488.094 31.848ZM525.541 99.552L556.541 22.672L574.893 21.68L600.933 95.832L584.317 104.016L575.389 73.016L556.789 72.52L540.421 105.504L525.541 99.552ZM564.725 39.784L558.029 59.624L572.413 60.12L564.725 39.784ZM607.868 23.168L637.876 22.92C637.876 22.92 656.476 23.168 656.228 42.016C655.98 60.864 646.804 61.36 646.804 61.36L631.428 64.088L658.956 98.064L647.3 103.52L621.26 70.288L622.252 104.264L608.364 103.52L607.868 23.168ZM636.388 30.856L621.012 32.096L619.524 54.664L636.884 53.92C636.884 53.92 648.044 54.168 647.548 42.512C647.052 30.856 636.388 30.856 636.388 30.856ZM665.594 22.672L695.354 23.168C695.354 23.168 722.882 21.928 722.634 64.088C722.386 106.248 697.09 103.52 697.09 103.52L665.842 103.768L665.594 22.672ZM693.37 33.584L677.25 34.08L677.002 90.872L695.602 91.368C695.602 91.368 712.218 94.344 711.722 62.6C711.226 30.856 693.37 33.584 693.37 33.584Z" fill="#FBE54C"/>
</g>
<defs>
<filter id="filter0_d_243_1181" x="0.330322" y="0.936005" width="746.552" height="133.312" filterUnits="userSpaceOnUse" color-interpolation-filters="sRGB">
<feFlood flood-opacity="0" result="BackgroundImageFix"/>
<feColorMatrix in="SourceAlpha" type="matrix" values="0 0 0 0 0 0 0 0 0 0 0 0 0 0 0 0 0 0 127 0" result="hardAlpha"/>
<feOffset dy="4"/>
<feGaussianBlur stdDeviation="12"/>
<feComposite in2="hardAlpha" operator="out"/>
<feColorMatrix type="matrix" values="0 0 0 0 0.470588 0 0 0 0 0.603922 0 0 0 0 0.94902 0 0 0 1 0"/>
<feBlend mode="normal" in2="BackgroundImageFix" result="effect1_dropShadow_243_1181"/>
<feBlend mode="normal" in="SourceGraphic" in2="effect1_dropShadow_243_1181" result="shape"/>
</filter>
</defs>
</svg>
