<svg width="583" height="140" viewBox="0 0 583 140" fill="none" xmlns="http://www.w3.org/2000/svg">
<path d="M1.85141 26.3572L52.6017 25.7597C52.6017 25.7597 74.3872 23.9172 74.8979 54.8323C75.4087 85.7474 55.3148 87.8614 55.3148 87.8614L20.6165 86.1632L24.2229 136.462L5.07202 136.859L1.85141 26.3572ZM52.0248 72.1838C52.0248 72.1838 62.6661 69.0865 62.0365 52.6346C61.4068 36.1826 52.4442 39.2156 52.4442 39.2156L17.19 40.5649L19.4053 72.0873L52.0248 72.1838ZM82.7739 22.5874L103.991 23.4566L101.881 117.686L145.193 116.029L146.817 132.106L89.3521 132.961L82.7739 22.5874ZM155.264 124.722L193.25 19.0316L218.044 16.7376L257.141 115.779L235.069 127.72L221.376 86.213L196.168 86.5053L175.718 132.009L155.264 124.722ZM205.216 41.7745L197.179 68.9819L216.678 68.908L205.216 41.7745ZM278.867 16.0909L304.933 47.0366L325.924 15.6348L338.615 30.9527L314.408 66.1762L319.628 123.475L297.778 123.638L296.252 66.1987L262.826 27.4647L278.867 16.0909ZM346.957 13.1486L414.663 11.9022L416.778 27.6248L367.732 28.8295L369.444 55.9999L398.564 56.9028L398.807 72.0246L369.454 73.8205L368.815 105.452L419.733 104.848L420.027 121.313L351.223 124.619L346.957 13.1486ZM425.48 10.8157L466.093 8.92499C466.093 8.92499 491.287 8.29694 491.928 33.8271C492.569 59.3573 480.172 60.5043 480.172 60.5043L459.497 64.9943L498.526 109.566L483.028 117.557L446.052 73.915L449.155 119.862L430.315 119.574L425.48 10.8157ZM464.49 19.7462L443.737 22.2217L442.892 52.8525L466.356 50.9457C466.356 50.9457 481.478 50.7031 480.203 34.9484C478.927 19.1937 464.49 19.7462 464.49 19.7462ZM504.984 34.3362C504.984 34.3362 503.143 3.80823 540.76 2.7047C578.378 1.60118 576.732 28.9001 576.732 28.9001L560.952 29.5041C560.952 29.5041 564.403 14.2409 542.204 14.0818C520.006 13.9227 518.634 30.7875 518.634 30.7875C518.634 30.7875 517.121 43.959 545.065 44.9069C573.01 45.8548 573.765 83.1493 573.765 83.1493C573.765 83.1493 571.538 112.824 538.053 116.459C504.567 120.095 507.504 91.4015 507.504 91.4015L521.129 87.1813C521.129 87.1813 517.058 103.813 536.829 102.048C556.6 100.282 557.972 83.4175 557.972 83.4175C557.972 83.4175 560.107 60.1348 537.237 60.0014C514.367 59.868 504.984 34.3362 504.984 34.3362Z" fill="#A953D4"/>
</svg>
