<svg width="742" height="107" viewBox="0 0 742 107" fill="none" xmlns="http://www.w3.org/2000/svg">
<g filter="url(#filter0_d_744_1686)">
<path d="M28.016 47.592C28.016 47.592 27.68 20.88 46.664 21.048C65.648 21.216 68.168 46.92 68.168 46.92C68.168 46.92 65.816 76.656 45.152 77.16C24.488 77.664 28.016 47.592 28.016 47.592ZM47.168 27.768C34.568 28.944 35.744 47.424 35.744 47.424C35.744 47.424 34.4 68.928 46.496 68.592C58.592 68.256 60.944 47.256 60.944 47.256C60.944 47.256 59.768 26.592 47.168 27.768ZM72.7033 21.216L83.2873 22.056L80.4313 69.096H102.103L102.607 77.16L73.8793 76.488L72.7033 21.216ZM107.473 21.384L118.057 21.888L119.233 76.656H107.977L107.473 21.384ZM123.601 74.472L131.833 22.392L144.601 22.224L147.457 48.768L150.817 22.224L162.073 22.392L170.809 73.128L161.233 77.328L157.369 37.344L153.001 64.56H143.425L138.217 36.168L133.009 78L123.601 74.472ZM175.347 21.552L200.715 22.224C200.715 22.224 211.635 21.72 211.299 37.176C210.963 52.632 200.883 53.304 200.883 53.304L183.579 51.792L184.419 76.992L174.843 76.824L175.347 21.552ZM199.539 45.408C199.539 45.408 204.915 44.064 204.915 35.832C204.915 27.6 200.379 28.944 200.379 28.944H182.739L183.243 44.736L199.539 45.408ZM216.187 21.384L226.771 21.888L227.947 76.656H216.691L216.187 21.384ZM232.316 73.632L253.316 21.552L265.748 20.88L283.388 71.112L272.132 76.656L266.084 55.656L253.484 55.32L242.396 77.664L232.316 73.632ZM258.86 33.144L254.324 46.584L264.068 46.92L258.86 33.144ZM287.917 21.552L308.077 21.888C308.077 21.888 326.725 21.048 326.557 49.608C326.389 78.168 309.253 76.32 309.253 76.32L288.085 76.488L287.917 21.552ZM306.733 28.944L295.813 29.28L295.645 67.752L308.245 68.088C308.245 68.088 319.501 70.104 319.165 48.6C318.829 27.096 306.733 28.944 306.733 28.944ZM331.128 21.552L364.98 22.224L365.736 30.12L341.208 29.784L341.544 43.392L356.076 44.4L355.908 51.96L341.208 52.296L340.284 68.088L365.736 68.76L365.568 76.992L331.128 77.328V21.552ZM405.266 21.384L418.034 42.048L427.778 22.224L436.01 28.608L423.242 48.768L437.69 69.096L432.818 76.32L417.362 56.664L404.762 77.664L398.042 72.96L412.154 47.928L397.202 28.776L405.266 21.384ZM442.557 21.384L453.141 21.888L454.317 76.656H443.061L442.557 21.384ZM459.19 21.384L469.774 21.888L470.95 76.656H459.694L459.19 21.384ZM502.283 21.384L511.187 22.392L511.355 39.696L527.147 23.064L533.867 34.656L517.067 49.104L535.547 73.968L524.459 77.664L511.187 54.144L512.027 78L502.619 77.496L502.283 21.384ZM539.92 74.472L548.152 22.392L560.92 22.224L563.776 48.768L567.136 22.224L578.392 22.392L587.128 73.128L577.552 77.328L573.688 37.344L569.32 64.56H559.744L554.536 36.168L549.328 78L539.92 74.472ZM619.134 21.384L629.718 21.888L630.894 76.656H619.638L619.134 21.384ZM636.103 21.72L670.879 24.24L672.055 33.48L660.295 33.816L660.463 76.152L650.887 75.648L651.391 33.144L635.935 32.976L636.103 21.72ZM676.759 20.88H702.463C702.463 20.88 714.895 20.376 715.399 35.496C715.903 50.616 704.647 50.112 704.647 50.112C704.647 50.112 717.415 51.456 716.407 62.712C715.399 73.968 701.959 76.32 701.959 76.32L678.271 76.656L676.759 20.88ZM683.983 27.432L684.487 43.728L698.263 44.232C698.263 44.232 708.007 45.912 707.503 36.168C706.999 26.424 700.951 27.768 700.951 27.768L683.983 27.432ZM684.991 52.8L685.495 69.096L698.263 68.928C698.263 68.928 707.839 70.776 708.175 62.376C708.511 53.976 700.111 54.144 700.111 54.144L684.991 52.8Z" fill="#3E8C72"/>
</g>
<defs>
<filter id="filter0_d_744_1686" x="0.487976" y="0.375977" width="740.927" height="105.792" filterUnits="userSpaceOnUse" color-interpolation-filters="sRGB">
<feFlood flood-opacity="0" result="BackgroundImageFix"/>
<feColorMatrix in="SourceAlpha" type="matrix" values="0 0 0 0 0 0 0 0 0 0 0 0 0 0 0 0 0 0 127 0" result="hardAlpha"/>
<feOffset dy="4"/>
<feGaussianBlur stdDeviation="12"/>
<feComposite in2="hardAlpha" operator="out"/>
<feColorMatrix type="matrix" values="0 0 0 0 0.984314 0 0 0 0 0.898039 0 0 0 0 0.298039 0 0 0 1 0"/>
<feBlend mode="normal" in2="BackgroundImageFix" result="effect1_dropShadow_744_1686"/>
<feBlend mode="normal" in="SourceGraphic" in2="effect1_dropShadow_744_1686" result="shape"/>
</filter>
</defs>
</svg>
